<svg version="1.1" viewBox="0.0 0.0 800.0 600.0" fill="none" stroke="none" stroke-linecap="square" stroke-miterlimit="10" xmlns:xlink="http://www.w3.org/1999/xlink" xmlns="http://www.w3.org/2000/svg"><clipPath id="p.0"><path d="m0 0l800.0 0l0 600.0l-800.0 0l0 -600.0z" clip-rule="nonzero"/></clipPath><g clip-path="url(#p.0)"><path fill="#000000" fill-opacity="0.0" d="m0 0l800.0 0l0 600.0l-800.0 0z" fill-rule="evenodd"/><path fill="#cfe2f3" d="m154.0 378.0l400.0 0l0 114.99213l-400.0 0z" fill-rule="evenodd"/><path stroke="#000000" stroke-width="1.0" stroke-linejoin="round" stroke-linecap="butt" d="m154.0 378.0l400.0 0l0 114.99213l-400.0 0z" fill-rule="evenodd"/><path fill="#cfe2f3" d="m177.0 285.00787l0 0c0 -23.752594 23.50682 -43.007874 52.503937 -43.007874l0 0c28.997131 0 52.503937 19.25528 52.503937 43.007874l0 0c0 23.752594 -23.506805 43.007874 -52.503937 43.007874l0 0c-28.997116 0 -52.503937 -19.25528 -52.503937 -43.007874z" fill-rule="evenodd"/><path stroke="#000000" stroke-width="1.0" stroke-linejoin="round" stroke-linecap="butt" d="m177.0 285.00787l0 0c0 -23.752594 23.50682 -43.007874 52.503937 -43.007874l0 0c28.997131 0 52.503937 19.25528 52.503937 43.007874l0 0c0 23.752594 -23.506805 43.007874 -52.503937 43.007874l0 0c-28.997116 0 -52.503937 -19.25528 -52.503937 -43.007874z" fill-rule="evenodd"/><path fill="#cfe2f3" d="m432.25198 285.00787l0 0c0 -21.543457 28.428131 -39.007874 63.496033 -39.007874l0 0c35.0679 0 63.496063 17.464417 63.496063 39.007874l0 0c0 21.543457 -28.428162 39.007874 -63.496063 39.007874l0 0c-35.0679 0 -63.496033 -17.464417 -63.496033 -39.007874z" fill-rule="evenodd"/><path stroke="#000000" stroke-width="1.0" stroke-linejoin="round" stroke-linecap="butt" d="m432.25198 285.00787l0 0c0 -21.543457 28.428131 -39.007874 63.496033 -39.007874l0 0c35.0679 0 63.496063 17.464417 63.496063 39.007874l0 0c0 21.543457 -28.428162 39.007874 -63.496063 39.007874l0 0c-35.0679 0 -63.496033 -17.464417 -63.496033 -39.007874z" fill-rule="evenodd"/><path fill="#cfe2f3" d="m483.74802 406.0l6.0 0l0 -81.98425l12.0 0l0 81.98425l6.0 0l-12.0 12.0z" fill-rule="evenodd"/><path stroke="#000000" stroke-width="1.0" stroke-linejoin="round" stroke-linecap="butt" d="m483.74802 406.0l6.0 0l0 -81.98425l12.0 0l0 81.98425l6.0 0l-12.0 12.0z" fill-rule="evenodd"/><path fill="#cfe2f3" d="m222.98425 338.0315l10.015747 -10.015747l10.015747 10.015747l-5.0078735 0l0 81.95276l-10.015747 0l0 -81.95276z" fill-rule="evenodd"/><path stroke="#000000" stroke-width="1.0" stroke-linejoin="round" stroke-linecap="butt" d="m222.98425 338.0315l10.015747 -10.015747l10.015747 10.015747l-5.0078735 0l0 81.95276l-10.015747 0l0 -81.95276z" fill-rule="evenodd"/><path fill="#cfe2f3" d="m297.0 285.00787l13.496063 -13.496063l0 6.748047l100.0 0l0 -6.748047l13.496063 13.496063l-13.496063 13.496063l0 -6.7480164l-100.0 0l0 6.7480164z" fill-rule="evenodd"/><path stroke="#000000" stroke-width="1.0" stroke-linejoin="round" stroke-linecap="butt" d="m297.0 285.00787l13.496063 -13.496063l0 6.748047l100.0 0l0 -6.748047l13.496063 13.496063l-13.496063 13.496063l0 -6.7480164l-100.0 0l0 6.7480164z" fill-rule="evenodd"/><path fill="#000000" fill-opacity="0.0" d="m271.74802 419.98425l160.50397 0l0 67.212585l-160.50397 0z" fill-rule="evenodd"/><path fill="#000000" d="m281.93552 446.52924q6.828125 -2.375 7.203125 -9.125l-6.6875 0l0 -1.640625l6.828125 0l0 -3.921875l1.640625 0q0.734375 0.140625 0.078125 0.59375l0 3.328125l7.125 0l0 1.640625l-6.984375 0q1.5625 6.15625 7.578125 8.75l-0.96875 1.796875q-5.203125 -2.390625 -7.34375 -8.03125q-1.265625 6.09375 -7.796875 8.390625l-0.671875 -1.78125z" fill-rule="nonzero"/><path fill="#000000" d="m306.52927 432.48236q-0.078125 1.296875 -0.078125 2.6875l0 11.078125q0 1.53125 -2.328125 1.828125q0 -0.65625 -0.578125 -1.46875q1.59375 0 1.59375 -0.578125l0 -3.71875l-2.03125 0q-0.15625 1.75 -0.484375 3.359375q-0.328125 1.59375 -0.984375 2.84375q-0.578125 -0.4375 -1.234375 -0.734375q0.578125 -0.953125 0.9375 -2.625q0.375 -1.671875 0.484375 -3.265625q0.109375 -1.609375 0.109375 -4.609375q0 -3.0625 -0.078125 -4.796875l4.671875 0zm8.8125 14.28125l0 -5.984375q0 -1.453125 -0.078125 -2.1875l1.46875 0q-0.078125 0.875 -0.078125 2.1875l0 5.171875q0 1.25 0.078125 2.921875l-1.390625 0l0 -0.953125l-7.796875 0.375q0.140625 -1.25 0.140625 -3.0625l0 -4.296875q0 -1.171875 -0.0625 -2.125l1.375 0q-0.0625 0.953125 -0.0625 2.125l0 6.046875l6.40625 -0.21875zm-6.34375 -1.828125q0.59375 -0.796875 1.28125 -1.8125q0.6875 -1.03125 1.28125 -2.046875q-0.59375 -0.953125 -1.171875 -1.9375q-0.578125 -0.984375 -1.171875 -1.859375q0.4375 -0.28125 1.09375 -0.65625q0.375 0.59375 0.953125 1.46875q0.578125 0.875 1.015625 1.75q0.4375 -0.953125 0.796875 -1.890625q0.375 -0.953125 0.515625 -1.609375q0.578125 0.28125 1.390625 0.65625q-0.515625 0.9375 -0.875 1.75q-0.359375 0.796875 -1.09375 2.1875q0.578125 1.015625 0.96875 1.75q0.40625 0.71875 1.0 1.953125q-0.8125 0.375 -1.171875 0.734375q-0.359375 -0.875 -0.765625 -1.671875q-0.390625 -0.8125 -0.765625 -1.46875q-0.28125 0.515625 -0.90625 1.5q-0.625 0.984375 -1.421875 2.078125q-0.359375 -0.4375 -0.953125 -0.875zm8.171875 -9.03125q-0.953125 -0.078125 -2.1875 -0.078125l-5.546875 0q-1.09375 0 -2.1875 0.078125l0 -1.25q1.09375 0.078125 2.125 0.078125l5.609375 0q1.234375 0 2.1875 -0.078125l0 1.25zm-12.03125 1.015625l0 -3.203125l-1.96875 0l0 3.203125l1.96875 0zm0 4.234375l0 -3.0l-1.96875 0l0 3.0l1.96875 0zm6.921875 -6.71875q-0.4375 -1.3125 -1.15625 -2.328125q0.65625 -0.21875 1.234375 -0.578125q0.734375 1.09375 1.234375 2.25q-0.71875 0.296875 -1.3125 0.65625zm21.796875 6.203125q-0.078125 0.953125 -0.078125 2.03125q0 1.09375 0.078125 2.5625l-1.453125 0l0 -3.359375l-9.046875 0l0 3.796875l-1.453125 0q0.078125 -1.6875 0.078125 -2.78125q0 -1.15625 -0.078125 -2.25l11.953125 0zm-3.140625 -5.609375q-0.5 0.875 -0.0625 1.5q0.4375 0.609375 1.1875 1.15625q0.765625 0.546875 1.890625 0.921875q1.140625 0.359375 2.53125 0.421875q-0.59375 0.8125 -0.875 1.53125q-1.828125 -0.359375 -3.25 -1.078125q-1.421875 -0.734375 -2.359375 -2.34375q-0.65625 1.671875 -1.90625 2.328125q-1.234375 0.65625 -2.6875 1.09375q-0.59375 -0.65625 -1.171875 -1.15625q3.0625 -0.59375 4.0 -1.75q0.953125 -1.171875 1.03125 -2.84375l1.671875 0.21875zm-3.203125 -0.515625q-0.875 1.171875 -1.671875 1.75q-0.515625 -0.515625 -1.09375 -0.875q0.875 -0.578125 1.640625 -1.5625q0.765625 -0.984375 1.203125 -2.078125q0.65625 0.296875 1.59375 0.4375q-0.359375 0.65625 -0.875 1.15625l6.859375 0q-0.21875 0.4375 -1.3125 2.84375q-0.875 -0.21875 -1.453125 -0.28125q0.359375 -0.8125 0.640625 -1.390625l-5.53125 0zm1.171875 8.375q-0.375 0.8125 -0.5625 1.609375q-0.171875 0.796875 -0.9375 1.640625q-0.765625 0.84375 -2.234375 1.5625q-1.453125 0.734375 -4.21875 1.171875q-0.21875 -0.734375 -0.875 -1.390625q2.125 -0.0625 3.53125 -0.546875q1.421875 -0.46875 2.15625 -1.046875q0.734375 -0.59375 1.0625 -1.421875q0.328125 -0.84375 0.328125 -1.796875q0.875 0.15625 1.75 0.21875zm0.875 1.96875q1.375 0.515625 2.6875 1.03125q1.3125 0.5 3.140625 1.3125q-0.4375 0.578125 -0.8125 1.453125q-1.375 -0.796875 -2.734375 -1.390625q-1.34375 -0.578125 -2.875 -1.09375q0.375 -0.578125 0.59375 -1.3125zm-5.109375 -7.640625q-1.8125 1.671875 -3.5 3.71875q-0.71875 -0.8125 -1.15625 -1.09375q2.328125 -1.828125 3.640625 -3.5q0.359375 0.359375 1.015625 0.875zm-1.09375 -1.90625q-1.15625 -0.875 -3.125 -2.03125q0.5 -0.515625 0.875 -1.015625q0.65625 0.4375 3.125 1.953125q-0.4375 0.4375 -0.875 1.09375z" fill-rule="nonzero"/><path fill="#000000" d="m341.81052 442.52924q-0.8125 2.59375 -2.296875 5.265625q0.078125 0.8125 -0.296875 0.453125l-1.40625 -1.34375q1.546875 -2.375 2.734375 -5.421875l1.265625 1.046875zm5.859375 1.921875q-0.59375 1.703125 -1.921875 3.421875l-1.265625 -1.046875q1.265625 -1.5625 1.9375 -3.484375l1.484375 0.734375q0.296875 0.296875 -0.234375 0.375zm6.3125 3.125q-1.625 -1.71875 -2.75 -3.5625l1.34375 -0.828125q1.40625 2.15625 2.515625 3.046875l-1.109375 1.34375zm-6.90625 -7.796875l0 1.5625l5.203125 0l0 -1.5625l-5.203125 0zm0 -2.671875l0 1.484375l5.203125 0l0 -1.484375l-5.203125 0zm2.015625 5.640625l-1.640625 0l-1.625 0l0 -7.046875l2.59375 0l0.140625 -1.9375l-4.15625 0l0 8.609375q0 3.484375 -2.078125 6.171875l-1.1875 -1.34375q1.78125 -2.234375 1.78125 -5.34375l0 -9.5l11.734375 0l0 1.40625l-4.3125 0l-0.515625 1.9375l3.71875 0l0 7.046875l-2.96875 0l0 4.53125q0 1.1875 -1.1875 1.1875l-1.34375 0l-0.296875 -1.40625l0.96875 0q0.375 0 0.375 -0.453125l0 -3.859375zm-9.796875 -6.390625q1.546875 0.75 2.671875 1.9375l-1.125 1.5625q-1.109375 -1.265625 -2.515625 -2.015625l0.96875 -1.484375zm2.078125 -0.8125q-1.125 -1.1875 -2.375 -1.921875l0.890625 -1.484375q1.484375 0.65625 2.4375 1.84375l-0.953125 1.5625zm20.1875 6.984375q-1.34375 2.890625 -2.671875 5.1875q0.0625 0.671875 -0.296875 0.453125l-1.265625 -1.34375q1.625 -2.21875 3.046875 -5.265625l1.1875 0.96875zm9.796875 3.859375q0.59375 0 0.8125 -0.59375l0.4375 -1.34375l1.5625 0.59375l-0.375 1.1875q-0.515625 1.5625 -2.296875 1.5625l-6.53125 0q-1.5625 0 -1.5625 -1.265625l0 -6.90625l-1.40625 0.59375l-0.375 -1.546875l1.78125 -0.671875l0 -4.453125l1.421875 0q0.59375 0.078125 0.0625 0.4375l0 3.5l2.078125 -0.828125l0 -4.8125l1.421875 0q0.59375 0.0625 0.0625 0.4375l0 3.859375l2.90625 -1.265625l0.140625 -0.359375l1.484375 1.109375l-0.375 0.296875l0 6.015625q0 1.1875 -1.1875 1.1875l-1.1875 0l-0.21875 -1.421875l0.8125 0q0.296875 0 0.296875 -0.296875l0 -4.75l-2.671875 1.125l0 6.0l-1.484375 0l0 -5.484375l-2.078125 0.8125l0 6.6875q0 0.59375 0.53125 0.59375l5.9375 0zm-12.84375 -9.359375q1.03125 0.375 2.671875 1.640625l-0.96875 1.40625q-1.328125 -1.109375 -2.515625 -1.703125l0.8125 -1.34375zm0.8125 -4.375q1.34375 0.4375 2.75 1.5625l-0.96875 1.328125q-1.328125 -1.109375 -2.59375 -1.625l0.8125 -1.265625z" fill-rule="nonzero"/><path fill="#000000" fill-opacity="0.0" d="m188.98425 255.0l105.00787 0l0 51.496063l-105.00787 0z" fill-rule="evenodd"/><path fill="#000000" d="m207.31238 267.77936q-0.515625 0.796875 -0.875 1.828125l2.40625 0q0 -1.46875 -0.078125 -2.765625l1.6875 0q-0.15625 1.015625 -0.15625 2.765625q2.546875 -0.078125 3.640625 -0.078125l0 1.234375q-1.234375 -0.0625 -3.640625 -0.0625l0 2.546875l2.484375 0q1.09375 0 2.1875 -0.078125l0 1.3125q-1.09375 -0.0625 -3.359375 -0.0625l0 4.0q0 0.734375 0.796875 0.734375l0.875 0q0.515625 -0.296875 0.59375 -1.6875q0.71875 0.4375 1.53125 0.59375q-0.4375 2.46875 -1.53125 2.46875l-1.96875 0q-1.671875 0 -1.671875 -1.53125l0 -4.578125l-1.46875 0q0 2.1875 -0.796875 3.71875q-0.796875 1.515625 -2.1875 2.828125q-0.515625 -0.5 -1.453125 -0.796875q1.8125 -1.3125 2.4375 -2.578125q0.625 -1.28125 0.625 -3.171875q-2.1875 0 -3.28125 0.0625l0 -1.375q1.15625 0.140625 2.03125 0.140625l2.703125 0l0 -2.546875l-2.765625 0q-0.375 0.875 -0.59375 1.671875q-0.796875 -0.296875 -1.453125 -0.515625q1.09375 -1.890625 1.609375 -4.515625q0.71875 0.21875 1.671875 0.4375zm-4.453125 5.765625q-0.0625 1.53125 -0.0625 2.765625l0 3.9375q1.890625 1.53125 6.046875 1.671875q4.15625 0.140625 7.0 -0.359375q-0.375 0.359375 -0.734375 1.671875q-4.515625 0.078125 -6.53125 -0.078125q-2.0 -0.140625 -3.390625 -0.546875q-1.375 -0.390625 -2.171875 -0.90625q-0.796875 -0.515625 -1.390625 0.109375q-0.578125 0.625 -1.3125 1.5625q-0.5 -0.578125 -1.3125 -0.9375q0.8125 -0.875 2.40625 -2.046875l0 -5.6875q-1.09375 0 -2.328125 0.078125l0 -1.3125q1.390625 0.078125 3.78125 0.078125zm-1.078125 -5.765625q0.9375 2.1875 1.296875 3.28125q-0.640625 0.21875 -1.296875 0.515625q-0.296875 -0.875 -1.46875 -3.28125q0.65625 -0.21875 1.46875 -0.515625zm22.65625 -0.578125q1.015625 0 2.484375 0.078125l6.265625 0q-0.8125 1.59375 -1.4375 2.546875q-0.609375 0.9375 -1.984375 2.25q0.9375 0.59375 1.984375 0.8125q1.0625 0.21875 2.8125 0.359375q-0.71875 0.796875 -0.875 1.53125q-1.8125 -0.359375 -2.90625 -0.765625q-1.09375 -0.40625 -2.109375 -1.125q-1.09375 0.65625 -2.046875 1.0625q-0.953125 0.390625 -2.484375 0.828125q-0.140625 -0.578125 -1.015625 -1.234375q1.3125 -0.21875 2.328125 -0.515625q1.03125 -0.296875 2.046875 -0.953125q-1.609375 -1.671875 -2.1875 -3.640625l-0.875 0l0 -1.234375zm-1.609375 6.484375q0 0.65625 0.078125 1.390625q-0.796875 0.28125 -1.53125 0.65625l0 5.671875q-0.140625 1.25 -0.796875 1.5q-0.65625 0.25 -2.109375 0.46875q-0.078125 -0.875 -0.375 -1.96875q1.75 0.15625 1.828125 -0.21875l0 -4.875q-1.453125 0.734375 -1.96875 1.09375q-0.296875 -0.875 -0.734375 -1.671875q0.734375 -0.15625 2.703125 -0.8125l0 -3.5q-1.3125 0 -2.265625 0.078125l0 -1.390625q0.875 0.078125 2.265625 0.078125q0 -1.609375 -0.078125 -3.5l1.609375 0q-0.078125 1.75 -0.078125 3.5q0.796875 0 2.109375 -0.078125l0 1.390625q-1.15625 -0.078125 -2.109375 -0.078125l0 2.921875q0.734375 -0.296875 1.453125 -0.65625zm4.96875 2.328125q0 -0.875 -0.15625 -1.8125l1.6875 0q-0.078125 0.9375 -0.078125 1.8125q1.8125 0 3.5 -0.0625l0 1.296875q-1.96875 -0.0625 -3.5 -0.0625l0 2.1875q2.328125 0 4.875 -0.078125l0 1.3125q-2.03125 -0.078125 -4.875 -0.078125q0 2.5625 0.078125 3.359375l-1.6875 0q0.15625 -0.796875 0.15625 -3.359375q-4.015625 0 -5.109375 0.078125l0 -1.3125q1.171875 0.078125 5.109375 0.078125l0 -2.1875q-2.703125 0 -3.65625 0.0625l0 -1.296875q1.25 0.0625 3.65625 0.0625zm-1.171875 -7.578125q0.875 2.1875 2.046875 2.921875q0.578125 -0.4375 1.1875 -1.125q0.625 -0.703125 1.203125 -1.796875l-4.4375 0z" fill-rule="nonzero"/><path fill="#000000" d="m240.49988 277.01373l0 5.359375q0 1.1875 -1.1875 1.1875l-1.421875 0l-0.296875 -1.421875l1.125 0q0.296875 0 0.296875 -0.296875l0 -4.59375l-2.234375 0.359375q-0.21875 0.671875 -0.375 0.15625l-0.21875 -1.640625l2.828125 -0.359375l0 -3.859375l-2.375 0l0 -1.421875l2.375 0l0 -3.78125l1.40625 0q0.59375 0.078125 0.078125 0.453125l0 3.328125l1.84375 0l0 1.421875l-1.84375 0l0 3.625l2.078125 -0.296875l0 1.34375l-2.078125 0.4375zm7.78125 3.9375l2.75 0l0 -4.078125l-2.75 0l0 4.078125zm-1.25 -5.484375l0 -3.859375l-2.53125 0l0 3.859375l2.53125 0zm4.0 0l0 -3.859375l-2.75 0l0 3.859375l2.75 0zm1.484375 7.5625l-1.484375 0l0 -0.65625l-6.53125 0l0 0.890625l-1.484375 0l0 -13.078125l4.015625 0l0 -3.484375l1.1875 0q0.59375 0.078125 0.0625 0.453125l0 3.03125l4.234375 0l0 12.84375zm-5.484375 -2.078125l0 -4.078125l-2.53125 0l0 4.078125l2.53125 0zm10.15625 -12.015625l-1.484375 0l0 -1.421875l9.578125 0l0 1.421875l-2.21875 0l0 14.390625l-1.484375 0l0 -3.78125q-3.125 1.109375 -5.28125 1.625q-0.359375 0.53125 -0.4375 0.234375l-0.453125 -1.859375q0.890625 -0.15625 1.78125 -0.296875l0 -10.3125zm6.390625 12.90625q2.296875 -1.5625 3.5625 -3.265625q-1.859375 -2.75 -2.375 -7.34375l-0.890625 0l0 -1.40625l6.375 0l0.296875 -0.375l1.265625 1.1875l-0.375 0.21875q-0.515625 4.53125 -2.375 7.796875q1.1875 1.5625 3.125 2.75l-0.890625 1.5625q-1.9375 -1.5 -3.1875 -3.046875q-1.484375 1.703125 -3.5 3.34375l-1.03125 -1.421875zm4.453125 -4.53125q1.1875 -1.78125 1.78125 -6.078125l-3.640625 0q0.375 3.484375 1.859375 6.078125zm-9.359375 -8.375l0 2.515625l2.90625 0l0 -2.515625l-2.90625 0zm0 3.703125l0 2.453125l2.90625 0l0 -2.453125l-2.90625 0zm0 3.640625l0 2.671875q1.421875 -0.296875 2.90625 -0.8125l0 -1.859375l-2.90625 0z" fill-rule="nonzero"/><path fill="#000000" d="m209.6405 303.2481q0.4375 -0.734375 0.8125 -2.96875l-11.203125 0l0 -1.40625l11.359375 0q0.140625 -1.484375 0.21875 -2.671875l-6.6875 0l-0.296875 1.40625l-1.625 -0.21875q1.03125 -4.609375 1.40625 -8.53125l1.78125 0.21875q0.296875 0.296875 -0.21875 0.375l-0.21875 1.546875l8.609375 0l0 1.421875l-8.84375 0l-0.359375 2.375l8.078125 0q-0.296875 3.5625 -0.359375 4.078125l3.703125 0l0 1.40625l-3.859375 0q-0.21875 2.078125 -0.8125 3.5625q-0.59375 1.421875 -2.15625 1.421875l-2.671875 0l-0.21875 -1.421875l2.375 0q0.8125 0 1.1875 -0.59375zm19.078125 -9.046875l0 1.40625l-2.3125 0l0 7.203125l2.375 -0.75l0.234375 1.34375l-4.984375 1.625q-0.0625 0.53125 -0.359375 0.234375l-0.59375 -1.640625l1.84375 -0.453125l0 -14.25l1.421875 0q0.59375 0.078125 0.0625 0.453125l0 4.828125l2.3125 0zm4.890625 -1.640625l1.046875 1.265625q0.0625 0.375 -0.375 0.21875l-3.1875 2.375l0 6.609375q0 0.59375 0.515625 0.59375l1.40625 0q0.515625 0 0.59375 -0.59375l0.21875 -1.640625l1.421875 0.375l-0.234375 1.5625q-0.21875 1.703125 -1.25 1.703125l-2.96875 0q-1.1875 0 -1.1875 -1.265625l0 -14.84375l1.40625 0q0.59375 0.078125 0.078125 0.453125l0 5.34375l2.515625 -2.15625zm-11.578125 1.1875l0 3.71875l1.9375 -0.453125l0 1.1875l-1.9375 0.59375l0 5.71875q0 1.046875 -0.96875 1.046875l-1.546875 0l-0.296875 -1.421875l1.03125 0q0.296875 0 0.296875 -0.296875l0 -4.671875l-1.703125 0.515625q-0.15625 0.515625 -0.296875 0.21875l-0.515625 -1.625l2.515625 -0.453125l0 -4.078125l-2.15625 0l0 -1.40625l2.15625 0l0 -3.78125l1.40625 0q0.59375 0.0625 0.078125 0.4375l0 3.34375l1.703125 0l0 1.40625l-1.703125 0z" fill-rule="nonzero"/><path fill="#000000" d="m253.18738 290.79498q-1.46875 -0.0625 -4.296875 -0.0625l0 7.0l2.25 0q1.609375 0 2.84375 -0.078125l0 1.390625q-1.171875 -0.078125 -2.84375 -0.078125l-2.25 0l0 4.375q0 1.453125 0.0625 2.546875l-1.59375 0q0.0625 -1.390625 0.0625 -2.546875l0 -4.375l-2.46875 0q-1.3125 0 -2.484375 0.078125l0 -1.390625q1.171875 0.078125 2.484375 0.078125l2.46875 0l0 -7.0q-3.125 0 -4.375 0.0625l0 -1.375q1.25 0.078125 2.5625 0.078125l4.796875 0q1.3125 0 2.78125 -0.078125l0 1.375zm-14.65625 12.46875q0.8125 -0.515625 0.8125 -1.234375l0 -6.484375q-1.96875 0 -2.703125 0.0625l0 -1.453125q0.734375 0.078125 1.75 0.078125l2.40625 0q-0.078125 1.453125 -0.078125 2.90625l0 4.671875q0.796875 -0.734375 1.890625 -1.90625q0.296875 0.4375 0.8125 1.25q-1.3125 1.15625 -2.15625 1.890625q-0.828125 0.734375 -1.640625 1.609375q-0.4375 -0.8125 -1.09375 -1.390625zm11.515625 -7.0q1.09375 -2.328125 1.609375 -4.15625q0.796875 0.21875 1.75 0.59375q-0.15625 0.140625 -0.8125 1.53125q-0.65625 1.375 -1.15625 2.546875q-0.734375 -0.359375 -1.390625 -0.515625zm-5.75 -4.0q1.234375 2.40625 1.75 3.78125q-0.875 0.296875 -1.46875 0.65625q-0.71875 -2.40625 -1.59375 -3.859375q0.71875 -0.21875 1.3125 -0.578125zm-5.109375 -3.578125q0.875 0.734375 2.546875 2.765625q-0.65625 0.4375 -1.15625 0.953125q-0.796875 -1.171875 -2.40625 -2.765625q0.4375 -0.359375 1.015625 -0.953125z" fill-rule="nonzero"/><path fill="#000000" fill-opacity="0.0" d="m438.98425 266.3937l130.99213 0l0 67.212585l-130.99213 0z" fill-rule="evenodd"/><path fill="#000000" d="m457.31238 279.17307q-0.515625 0.796875 -0.875 1.828125l2.40625 0q0 -1.46875 -0.078125 -2.765625l1.6875 0q-0.15625 1.015625 -0.15625 2.765625q2.546875 -0.078125 3.640625 -0.078125l0 1.234375q-1.234375 -0.0625 -3.640625 -0.0625l0 2.546875l2.484375 0q1.09375 0 2.1875 -0.078125l0 1.3125q-1.09375 -0.0625 -3.359375 -0.0625l0 4.0q0 0.734375 0.796875 0.734375l0.875 0q0.515625 -0.296875 0.59375 -1.6875q0.71875 0.4375 1.53125 0.59375q-0.4375 2.46875 -1.53125 2.46875l-1.96875 0q-1.671875 0 -1.671875 -1.53125l0 -4.578125l-1.46875 0q0 2.1875 -0.796875 3.71875q-0.796875 1.515625 -2.1875 2.828125q-0.515625 -0.5 -1.453125 -0.796875q1.8125 -1.3125 2.4375 -2.578125q0.625 -1.28125 0.625 -3.171875q-2.1875 0 -3.28125 0.0625l0 -1.375q1.15625 0.140625 2.03125 0.140625l2.703125 0l0 -2.546875l-2.765625 0q-0.375 0.875 -0.59375 1.671875q-0.796875 -0.296875 -1.453125 -0.515625q1.09375 -1.890625 1.609375 -4.515625q0.71875 0.21875 1.671875 0.4375zm-4.453125 5.765625q-0.0625 1.53125 -0.0625 2.765625l0 3.9375q1.890625 1.53125 6.046875 1.671875q4.15625 0.140625 7.0 -0.359375q-0.375 0.359375 -0.734375 1.671875q-4.515625 0.078125 -6.53125 -0.078125q-2.0 -0.140625 -3.390625 -0.546875q-1.375 -0.390625 -2.171875 -0.90625q-0.796875 -0.515625 -1.390625 0.109375q-0.578125 0.625 -1.3125 1.5625q-0.5 -0.578125 -1.3125 -0.9375q0.8125 -0.875 2.40625 -2.046875l0 -5.6875q-1.09375 0 -2.328125 0.078125l0 -1.3125q1.390625 0.078125 3.78125 0.078125zm-1.078125 -5.765625q0.9375 2.1875 1.296875 3.28125q-0.640625 0.21875 -1.296875 0.515625q-0.296875 -0.875 -1.46875 -3.28125q0.65625 -0.21875 1.46875 -0.515625zm22.65625 -0.578125q1.015625 0 2.484375 0.078125l6.265625 0q-0.8125 1.59375 -1.4375 2.546875q-0.609375 0.9375 -1.984375 2.25q0.9375 0.59375 1.984375 0.8125q1.0625 0.21875 2.8125 0.359375q-0.71875 0.796875 -0.875 1.53125q-1.8125 -0.359375 -2.90625 -0.765625q-1.09375 -0.40625 -2.109375 -1.125q-1.09375 0.65625 -2.046875 1.0625q-0.953125 0.390625 -2.484375 0.828125q-0.140625 -0.578125 -1.015625 -1.234375q1.3125 -0.21875 2.328125 -0.515625q1.03125 -0.296875 2.046875 -0.953125q-1.609375 -1.671875 -2.1875 -3.640625l-0.875 0l0 -1.234375zm-1.609375 6.484375q0 0.65625 0.078125 1.390625q-0.796875 0.28125 -1.53125 0.65625l0 5.671875q-0.140625 1.25 -0.796875 1.5q-0.65625 0.25 -2.109375 0.46875q-0.078125 -0.875 -0.375 -1.96875q1.75 0.15625 1.828125 -0.21875l0 -4.875q-1.453125 0.734375 -1.96875 1.09375q-0.296875 -0.875 -0.734375 -1.671875q0.734375 -0.15625 2.703125 -0.8125l0 -3.5q-1.3125 0 -2.265625 0.078125l0 -1.390625q0.875 0.078125 2.265625 0.078125q0 -1.609375 -0.078125 -3.5l1.609375 0q-0.078125 1.75 -0.078125 3.5q0.796875 0 2.109375 -0.078125l0 1.390625q-1.15625 -0.078125 -2.109375 -0.078125l0 2.921875q0.734375 -0.296875 1.453125 -0.65625zm4.96875 2.328125q0 -0.875 -0.15625 -1.8125l1.6875 0q-0.078125 0.9375 -0.078125 1.8125q1.8125 0 3.5 -0.0625l0 1.296875q-1.96875 -0.0625 -3.5 -0.0625l0 2.1875q2.328125 0 4.875 -0.078125l0 1.3125q-2.03125 -0.078125 -4.875 -0.078125q0 2.5625 0.078125 3.359375l-1.6875 0q0.15625 -0.796875 0.15625 -3.359375q-4.015625 0 -5.109375 0.078125l0 -1.3125q1.171875 0.078125 5.109375 0.078125l0 -2.1875q-2.703125 0 -3.65625 0.0625l0 -1.296875q1.25 0.0625 3.65625 0.0625zm-1.171875 -7.578125q0.875 2.1875 2.046875 2.921875q0.578125 -0.4375 1.1875 -1.125q0.625 -0.703125 1.203125 -1.796875l-4.4375 0z" fill-rule="nonzero"/><path fill="#000000" d="m493.53113 290.6418q-0.953125 3.1875 -3.625 4.234375l-0.671875 -1.40625q2.890625 -1.265625 3.1875 -4.46875l0.078125 -0.8125l-2.53125 0l0 -1.1875l3.203125 0l0 -1.40625l-1.1875 0l-1.125 0l0 -5.9375l1.9375 0l0.296875 -1.9375l1.625 0.234375q0.296875 0.296875 -0.21875 0.359375l-0.296875 1.34375l2.296875 0l0 5.421875q1.5625 -2.90625 2.078125 -6.90625l1.421875 0.296875q0.21875 0.296875 -0.15625 0.375q-0.21875 1.328125 -0.59375 2.671875l4.015625 0l0 1.40625l-0.96875 0q-0.15625 3.40625 -1.640625 6.90625q1.1875 1.921875 2.828125 2.890625l-0.8125 1.640625q-1.5625 -1.203125 -2.75 -3.046875q-1.046875 1.78125 -2.890625 3.484375l-0.53125 -1.265625q-0.359375 1.125 -1.40625 1.125l-1.265625 0l-0.21875 -1.421875l1.109375 0q0.671875 0 0.75 -2.59375l-1.9375 0zm3.421875 -1.1875l-0.375 3.484375q1.640625 -1.328125 2.59375 -3.1875q-0.8125 -2.671875 -1.03125 -4.96875q-0.375 0.890625 -0.890625 1.703125l-0.75 -1.1875l0 0.296875l-2.078125 0l0 1.40625l2.96875 0l0 1.1875l-3.484375 0l-0.140625 1.265625l3.1875 0zm2.21875 -6.53125q0.15625 2.890625 0.75 5.046875q0.96875 -3.125 1.03125 -5.046875l-1.78125 0zm-3.921875 -2.078125l-3.125 0l0 1.1875l3.125 0l0 -1.1875zm0 2.375l-3.125 0l0 1.1875l3.125 0l0 -1.1875zm-7.421875 10.984375q0.140625 0.453125 -0.234375 0.375l-1.484375 -1.109375q1.1875 -1.796875 2.609375 -5.5l1.25 0.96875q-1.1875 3.625 -2.140625 5.265625zm0.953125 -8.015625q-1.1875 -1.1875 -2.375 -1.859375l0.96875 -1.484375q1.484375 0.671875 2.453125 1.78125l-1.046875 1.5625zm0.59375 -4.609375q-1.109375 -1.109375 -2.4375 -1.78125l0.953125 -1.40625q1.421875 0.515625 2.53125 1.703125l-1.046875 1.484375zm21.078125 -1.921875q5.421875 -0.375 9.359375 -1.1875l0.890625 1.40625q0.140625 0.453125 -0.453125 0.15625q-1.703125 0.296875 -3.484375 0.515625l0 2.96875l5.5 0l0 1.40625l-5.5 0l0 2.890625l3.78125 0l0 6.84375l-1.484375 0l0 -0.59375l-6.0 0l0 0.8125l-1.484375 0l0 -7.0625l3.703125 0l0 -2.890625l-5.265625 0l0 -1.40625l5.265625 0l0 -2.828125q-2.375 0.15625 -4.53125 0.375l-0.296875 -1.40625zm2.609375 12.984375l6.0 0l0 -3.40625l-6.0 0l0 3.40625zm-7.71875 0.75q1.921875 -2.671875 3.109375 -5.34375l1.40625 0.890625q-1.625 3.703125 -2.734375 5.34375q0.140625 0.4375 -0.234375 0.375l-1.546875 -1.265625zm1.40625 -10.390625q1.109375 0.59375 2.59375 1.78125l-0.96875 1.484375q-1.484375 -1.125 -2.59375 -1.859375l0.96875 -1.40625zm0.515625 -4.390625q0.890625 0.53125 2.59375 1.859375l-0.953125 1.640625q-1.640625 -1.34375 -2.609375 -2.078125l0.96875 -1.421875zm26.046875 4.390625q0.59375 0.140625 0 0.4375q-0.140625 0.671875 -0.359375 1.265625l7.859375 0l0 1.40625l-5.640625 0q2.59375 1.78125 6.390625 2.453125l-0.375 1.5625q-1.484375 -0.296875 -2.078125 -0.59375l0 5.046875l-1.484375 0l0 -0.8125l-2.59375 0l0 1.03125l-1.484375 0l0 -5.9375l3.859375 0q-2.15625 -0.890625 -3.9375 -2.75l-1.1875 0q-1.1875 1.703125 -3.1875 2.75l2.96875 0l0 5.796875l-1.484375 0l0 -0.890625l-2.53125 0l0 1.109375l-1.484375 0l0 -4.90625q-0.671875 0.375 -2.0 0.671875l-0.515625 -1.5625q4.0 -0.59375 6.53125 -2.96875l-5.796875 0l0 -1.40625l6.6875 0q0.4375 -0.8125 0.59375 -1.78125l1.25 0.078125zm-1.484375 0.359375l-1.484375 0l0 -0.359375l-2.890625 0l0 0.65625l-1.484375 0l0 -5.1875l5.859375 0l0 4.890625zm1.859375 -4.890625l5.9375 0l0 4.890625l-1.484375 0l0 -0.359375l-2.96875 0l0 0.65625l-1.484375 0l0 -5.1875zm3.9375 14.09375l0 -2.515625l-2.59375 0l0 2.515625l2.59375 0zm-7.28125 -10.75l0 -2.15625l-2.890625 0l0 2.15625l2.890625 0zm7.796875 -2.15625l-2.96875 0l0 2.15625l2.96875 0l0 -2.15625zm-7.5625 12.90625l0 -2.515625l-2.53125 0l0 2.515625l2.53125 0z" fill-rule="nonzero"/><path fill="#cfe2f3" d="m222.98425 242.0l0 -37.631897l0 0c0 -20.783508 16.848373 -37.63188 37.631897 -37.63188l85.87204 0l0 -10.751968l21.503937 21.503937l-21.503937 21.503937l0 -10.751968l-85.87204 0l0 0c-8.907227 0 -16.12796 7.2207336 -16.12796 16.127945l0 37.631897z" fill-rule="evenodd"/><path stroke="#000000" stroke-width="1.0" stroke-linejoin="round" stroke-linecap="butt" d="m222.98425 242.0l0 -37.631897l0 0c0 -20.783508 16.848373 -37.63188 37.631897 -37.63188l85.87204 0l0 -10.751968l21.503937 21.503937l-21.503937 21.503937l0 -10.751968l-85.87204 0l0 0c-8.907227 0 -16.12796 7.2207336 -16.12796 16.127945l0 37.631897z" fill-rule="evenodd"/><path fill="#000000" fill-opacity="0.0" d="m367.99213 149.7874l130.99213 0l0 67.2126l-130.99213 0z" fill-rule="evenodd"/><path fill="#000000" d="m383.2265 164.37927q0.515625 0.75 0.8125 2.15625l-1.25 0.59375q-0.296875 -1.328125 -0.671875 -2.078125l1.109375 -0.671875zm-3.34375 1.34375q-0.140625 2.59375 -0.65625 4.96875l-1.484375 -0.296875q0.59375 -2.890625 0.65625 -5.34375l1.421875 0.21875q0.65625 0.15625 0.0625 0.453125zm2.015625 12.6875l-1.484375 0l0 -17.140625l1.40625 0q0.734375 0.140625 0.078125 0.59375l0 16.546875zm12.609375 -15.4375l0 1.1875l-4.53125 0l0 0.96875l3.640625 0l0 1.1875l-3.640625 0l0 1.03125l5.046875 0l0 1.1875l-11.34375 0l0 -1.1875l4.8125 0l0 -1.03125l-3.625 0l0 -1.1875l3.625 0l0 -0.96875l-4.453125 0l0 -1.1875l4.453125 0l0 -1.78125l1.421875 0q0.59375 0.078125 0.0625 0.453125l0 1.328125l4.53125 0zm-1.109375 6.53125l0 7.796875q0 0.96875 -1.046875 0.96875l-1.25 0l-0.453125 -1.40625l0.96875 0q0.296875 0 0.296875 -0.3125l0 -1.40625l-5.125 0l0 3.34375l-1.484375 0l0 -8.984375l8.09375 0zm-1.484375 1.1875l-5.125 0l0 1.046875l5.125 0l0 -1.046875zm0 2.234375l-5.125 0l0 1.03125l5.125 0l0 -1.03125zm22.109375 -3.046875l-0.21875 1.328125q-0.296875 1.78125 -1.921875 1.1875q-1.71875 -0.59375 -2.828125 -1.84375q-0.890625 1.109375 -2.890625 2.296875l-0.96875 -1.265625q1.859375 -0.96875 2.96875 -2.21875q-1.265625 -2.453125 -1.484375 -5.046875l-6.90625 0l0 3.484375q0 3.265625 -1.40625 4.96875l-1.328125 -0.890625q1.25 -1.5625 1.25 -3.9375l0 -4.8125l8.3125 0l-0.0625 -1.9375l1.40625 0q0.671875 0.078125 0.078125 0.453125l0.0625 1.484375l2.234375 0q-0.515625 -0.375 -1.40625 -0.890625l1.109375 -0.890625q1.109375 0.515625 1.78125 1.03125l-0.890625 0.75l2.515625 0l0 1.1875l-5.265625 0q0.296875 2.21875 1.109375 3.921875q0.828125 -1.25 1.421875 -3.03125l1.328125 0.59375q0.515625 0.359375 -0.140625 0.515625q-0.671875 1.78125 -1.78125 3.1875q0.8125 0.890625 1.703125 1.265625q0.515625 0.21875 0.59375 -0.515625l0.078125 -0.828125l1.546875 0.453125zm-13.421875 3.5625q0.359375 0.21875 -0.15625 0.515625q-0.515625 2.234375 -1.265625 4.015625l-1.546875 -0.8125q0.8125 -1.5625 1.484375 -4.09375l1.484375 0.375zm11.9375 3.9375q-1.25 -2.015625 -2.59375 -3.34375l1.109375 -0.890625q1.484375 1.265625 2.828125 3.046875l-1.34375 1.1875zm-7.421875 -4.90625q1.265625 1.109375 2.3125 2.53125l-1.34375 0.953125q-0.96875 -1.40625 -2.15625 -2.59375l1.1875 -0.890625zm0.890625 -4.96875l0 3.265625l-4.0 0l0 0.59375l-1.265625 0l0 -3.859375l5.265625 0zm-5.5625 -2.078125l5.796875 0l0 1.1875l-5.796875 0l0 -1.1875zm1.5625 4.453125l2.75 0l0 -1.484375l-2.75 0l0 1.484375zm0.8125 2.75q0.59375 0.0625 0.078125 0.4375l0 3.046875q0 0.59375 0.515625 0.59375l4.53125 0q0.59375 0 0.671875 -0.59375l0.140625 -0.96875l1.484375 0.15625l-0.296875 1.5625q-0.21875 1.25 -1.703125 1.25l-5.5 0q-1.328125 0 -1.328125 -1.25l0 -4.234375l1.40625 0zm25.453125 1.328125q1.1875 1.484375 4.453125 2.671875l-0.734375 1.640625q-5.796875 -1.9375 -7.34375 -8.171875l-0.453125 0q-0.734375 1.046875 -1.5625 1.859375l0 4.15625l4.234375 -0.8125l0.21875 1.25q-4.0 0.96875 -7.859375 1.71875q-0.21875 0.671875 -0.453125 0.21875l-0.515625 -1.78125l2.890625 -0.375l0 -3.1875q-1.921875 1.328125 -4.296875 2.15625l-0.75 -1.484375q3.71875 -1.046875 6.3125 -3.71875l-5.9375 0l0 -1.40625l7.203125 0l0 -1.34375l-5.34375 0l0 -1.40625l5.34375 0l0 -1.328125l-6.3125 0l0 -1.421875l6.3125 0l0 -1.78125l1.40625 0q0.59375 0.078125 0.078125 0.453125l0 1.328125l6.3125 0l0 1.421875l-6.3125 0l0 1.328125l5.34375 0l0 1.40625l-5.34375 0l0 1.34375l7.203125 0l0 1.40625l-6.3125 0q0.4375 1.40625 1.484375 2.96875q1.40625 -1.1875 2.671875 -2.59375l1.109375 1.109375q0.078125 0.375 -0.375 0.21875q-1.25 1.1875 -2.671875 2.15625zm12.46875 -7.640625q-0.890625 1.265625 -1.625 2.296875l0 9.734375l-1.484375 0l0 -8.171875q-1.265625 1.40625 -2.078125 1.921875l-0.671875 -1.625q2.296875 -1.484375 4.75 -5.5l1.265625 0.96875q0.59375 0.375 -0.15625 0.375zm-5.640625 -0.890625q2.453125 -1.640625 4.09375 -3.9375l1.1875 0.890625q0.515625 0.453125 -0.234375 0.375q-1.703125 2.515625 -4.375 4.296875l-0.671875 -1.625zm16.03125 -1.34375l-3.921875 0l0 4.6875l3.40625 0l0 1.40625l-3.40625 0l0 6.078125l4.59375 0l0 1.421875l-11.796875 0l0 -1.421875l2.078125 0l0 -9.640625l1.40625 0q0.59375 0.078125 0.078125 0.4375l0 9.203125l2.15625 0l0 -12.171875l-4.609375 0l0 -1.40625l10.015625 0l0 1.40625z" fill-rule="nonzero"/></g></svg>